/* XPM */
static char * lcrt_logo_xpm[] = {
"32 32 327 2",
"  	c None",
". 	c #DCDCDC",
"+ 	c #DADADA",
"@ 	c #DADADB",
"# 	c #DBDCDC",
"$ 	c #DCDDDC",
"% 	c #DEDEDE",
"& 	c #DFDFDF",
"* 	c #E0E0E0",
"= 	c #E1E1E1",
"- 	c #DBDBDB",
"; 	c #D8D8D8",
"> 	c #D5D5D5",
", 	c #D4D4D4",
"' 	c #D3D3D3",
") 	c #ECECEC",
"! 	c #EFEFEF",
"~ 	c #EFF0F0",
"{ 	c #F0F1F0",
"] 	c #F1F2F2",
"^ 	c #F2F4F3",
"/ 	c #F2F3F3",
"( 	c #F2F2F2",
"_ 	c #F2F3F2",
": 	c #F1F1F1",
"< 	c #F0F0F0",
"[ 	c #EEEEEE",
"} 	c #EBEBEB",
"| 	c #E6E6E6",
"1 	c #DFE0DF",
"2 	c #D0D0D0",
"3 	c #CCCCCC",
"4 	c #C7C7C7",
"5 	c #C2C2C3",
"6 	c #C0C0C0",
"7 	c #BCBCBC",
"8 	c #CBCBCB",
"9 	c #F3F4F3",
"0 	c #C7C7C5",
"a 	c #B7B7B5",
"b 	c #BBBAB8",
"c 	c #BCBCB9",
"d 	c #BCBFBD",
"e 	c #BEC0BE",
"f 	c #C0C1BF",
"g 	c #C2C3C2",
"h 	c #C4C4C5",
"i 	c #C5C6C6",
"j 	c #C5C6C7",
"k 	c #C6C7C7",
"l 	c #C7C8C8",
"m 	c #C6C6C7",
"n 	c #C3C3C5",
"o 	c #C1C2C1",
"p 	c #BDBCBB",
"q 	c #B9B9B8",
"r 	c #B4B4B4",
"s 	c #B0AEAF",
"t 	c #ABAAA8",
"u 	c #A7A6A4",
"v 	c #A3A0A1",
"w 	c #9E9B9B",
"x 	c #989794",
"y 	c #ABAAAA",
"z 	c #C1C1C1",
"A 	c #C3C3C3",
"B 	c #CDCDCD",
"C 	c #EFF0EF",
"D 	c #FBFCFC",
"E 	c #393939",
"F 	c #0A0A0A",
"G 	c #101011",
"H 	c #161616",
"I 	c #1C1C1C",
"J 	c #222222",
"K 	c #292929",
"L 	c #2F2E2E",
"M 	c #353434",
"N 	c #3A3A3A",
"O 	c #3F3F3E",
"P 	c #434343",
"Q 	c #464646",
"R 	c #444444",
"S 	c #404040",
"T 	c #3C3C3C",
"U 	c #363636",
"V 	c #313131",
"W 	c #2B2B2B",
"X 	c #252525",
"Y 	c #1E1F1F",
"Z 	c #181919",
"` 	c #121313",
" .	c #0D0D0E",
"..	c #444340",
"+.	c #C4C4C4",
"@.	c #F1F1F2",
"#.	c #3E3E3E",
"$.	c #101010",
"%.	c #151515",
"&.	c #1A1A1A",
"*.	c #202020",
"=.	c #272727",
"-.	c #2D2D2D",
";.	c #333333",
">.	c #373737",
",.	c #3D3D3D",
"'.	c #414141",
").	c #454545",
"!.	c #474747",
"~.	c #424242",
"{.	c #2E2E2E",
"].	c #282828",
"^.	c #111111",
"/.	c #4C4A47",
"(.	c #C5C5C5",
"_.	c #D2D2D2",
":.	c #F1F3F2",
"<.	c #0F0F0F",
"[.	c #141414",
"}.	c #242424",
"|.	c #2A2A2A",
"1.	c #303030",
"2.	c #353535",
"3.	c #3F3F3F",
"4.	c #3B3B3B",
"5.	c #323232",
"6.	c #2C2C2C",
"7.	c #212121",
"8.	c #504E4A",
"9.	c #F1F2F1",
"0.	c #FBFCFB",
"a.	c #3D3C3C",
"b.	c #0D0D0D",
"c.	c #131313",
"d.	c #171717",
"e.	c #1D1D1D",
"f.	c #232323",
"g.	c #383838",
"h.	c #343434",
"i.	c #1F1F1F",
"j.	c #191919",
"k.	c #514F4D",
"l.	c #C6C6C6",
"m.	c #F9F9F9",
"n.	c #0C0C0C",
"o.	c #1B1B1B",
"p.	c #262626",
"q.	c #121212",
"r.	c #52504E",
"s.	c #CFCFCF",
"t.	c #F8F8F8",
"u.	c #0E0E0E",
"v.	c #0B0B0B",
"w.	c #EFEFEE",
"x.	c #F7F7F6",
"y.	c #080808",
"z.	c #181818",
"A.	c #1E1E1E",
"B.	c #090909",
"C.	c #52514E",
"D.	c #C8C8C8",
"E.	c #ECECEB",
"F.	c #F7F7F4",
"G.	c #373738",
"H.	c #060606",
"I.	c #070707",
"J.	c #53524F",
"K.	c #C9C9C9",
"L.	c #EBECEB",
"M.	c #F6F6F4",
"N.	c #535251",
"O.	c #EBECEA",
"P.	c #F6F6F5",
"Q.	c #555353",
"R.	c #CACACA",
"S.	c #EAEBEA",
"T.	c #F3F3F1",
"U.	c #585554",
"V.	c #C5C5C6",
"W.	c #EAEBEB",
"X.	c #F2F2F0",
"Y.	c #5A5857",
"Z.	c #E9EAE8",
"`.	c #F0F0EE",
" +	c #5E5A5A",
".+	c #E8E9E7",
"++	c #EEEEEC",
"@+	c #4A4A4A",
"#+	c #5F5D5C",
"$+	c #E5E6E5",
"%+	c #EBEBEA",
"&+	c #4E4E4E",
"*+	c #605F5E",
"=+	c #E5E6E4",
"-+	c #E8E8E7",
";+	c #6B6968",
">+	c #403E3B",
",+	c #403E3D",
"'+	c #413E3D",
")+	c #403E3C",
"!+	c #413D3C",
"~+	c #403D3B",
"{+	c #3F3D3D",
"]+	c #3F3E3D",
"^+	c #3F3E3C",
"/+	c #403D3E",
"(+	c #403D3D",
"_+	c #3F3D3C",
":+	c #3E3C3C",
"<+	c #3F3C3A",
"[+	c #3D3B3A",
"}+	c #3D3A39",
"|+	c #3C3A38",
"1+	c #3D3A38",
"2+	c #3B3935",
"3+	c #3A3838",
"4+	c #72716F",
"5+	c #BFBEBF",
"6+	c #E2E3E1",
"7+	c #E2E2E0",
"8+	c #ECEDEB",
"9+	c #F0F1EF",
"0+	c #ECECED",
"a+	c #F0F1F1",
"b+	c #F3F3F3",
"c+	c #D7D8D7",
"d+	c #EEEDED",
"e+	c #EAEAEB",
"f+	c #E7E8E8",
"g+	c #E4E4E4",
"h+	c #DCDCDD",
"i+	c #D9DADA",
"j+	c #D4D4D5",
"k+	c #CFD0D0",
"l+	c #C7C6C6",
"m+	c #C7C6C5",
"n+	c #E6E6E5",
"o+	c #E2E2E2",
"p+	c #E3E3E3",
"q+	c #E5E5E5",
"r+	c #E7E7E7",
"s+	c #E8E8E8",
"t+	c #E9E9E8",
"u+	c #EAEAEA",
"v+	c #E2E1E2",
"w+	c #DBDBDC",
"x+	c #E5E5E4",
"y+	c #CECECE",
"z+	c #C2C2C2",
"A+	c #BFBFBF",
"B+	c #BBBBBB",
"C+	c #E3E2E2",
"D+	c #D9D9D9",
"E+	c #D6D6D6",
"F+	c #D7D7D7",
"G+	c #D2D2D5",
"H+	c #8D8D91",
"I+	c #CBCAC9",
"J+	c #979696",
"K+	c #F2F2F3",
"L+	c #F5F4F4",
"M+	c #E8E6E6",
"N+	c #E8E7E7",
"O+	c #F6F6F6",
"P+	c #F7F7F7",
"Q+	c #F4F4F4",
"R+	c #E3E2E3",
"S+	c #8E8E8E",
"T+	c #DEDEDD",
"U+	c #D8D6D5",
"V+	c #D7D6D6",
"W+	c #D5D5D4",
"X+	c #FAFAFB",
"Y+	c #FCFCFC",
"Z+	c #FAFAFA",
"`+	c #BDBCBD",
" @	c #F3F2F2",
".@	c #E6E5E5",
"+@	c #DDDCDB",
"@@	c #D0CECD",
"#@	c #C8C6C4",
"$@	c #D0CECE",
"%@	c #FDFDFD",
"&@	c #FEFEFE",
"*@	c #F8F7F8",
"=@	c #F1F0F0",
"-@	c #EBEAEA",
";@	c #E2E2E1",
">@	c #D6D4D4",
",@	c #C3C1BE",
"'@	c #BFBDBD",
")@	c #F8F8F9",
"!@	c #FBFBFB",
"~@	c #F5F4F5",
"{@	c #E3E3E2",
"]@	c #D8D7D6",
"^@	c #C9C7C6",
"/@	c #B2AFAF",
"(@	c #BEBCBC",
"_@	c #FCFCFD",
":@	c #FFFFFF",
"<@	c #FBFAFA",
"[@	c #F7F6F6",
"}@	c #F3F1F2",
"|@	c #E2E0DF",
"1@	c #C9C7C5",
"2@	c #B3B0AF",
"3@	c #B4B1B1",
"4@	c #E9E9E9",
"5@	c #F6F6F7",
"6@	c #E5E4E5",
"7@	c #DAD8D7",
"8@	c #CBCAC8",
"9@	c #B2B0AE",
"0@	c #ABA8A8",
"a@	c #F5F5F5",
"b@	c #F3F2F3",
"c@	c #E7E7E6",
"d@	c #DEDDDB",
"e@	c #CDCBC9",
"f@	c #B7B5B3",
"g@	c #B3B2B1",
"h@	c #E1E0E0",
"i@	c #D6D5D5",
"j@	c #BFBEBD",
"k@	c #B3B1B1",
"l@	c #A4A3A2",
"  . + @ # $ % % & * * = * * * * & & % % - ; > , , ' ' , > > )   ",
"  ! ~ { ] ^ / ( _ ( : : : : < ! [ ) } | 1 . ; , 2 3 4 5 6 7 8   ",
"3 < 9 0 a b c d e f g h i j k l m n o p q r s t u v w x y z A , ",
"B C D E F G H I J K L M N O P Q Q R S T U V W X Y Z `  ...+.+.' ",
"3 @.D #.$.%.&.*.=.-.;.>.,.'.).!.!.Q ~.#.E ;.{.].J I H ^./.(.+._.",
"3 :.D #.<.[.&.*.}.|.1.2.N #.'.P R ~.3.4.U 5.6.=.7.&.H $.8.(.(.  ",
"B 9.0.a.b.c.d.e.f.].-.5.U N ,.#.3.#.4.g.h.{.K }.i.j.[.<.k.l.(.  ",
"B ! m.4.n.^.%.o.*.X |.{.5.2.>.E E g.U ;.1.W p.7.I H q.b.r.k l.  ",
"s.! t.N F u.c.d.e.7.X |.-.1.;.;.h.5.1.{.|.=.f.e.j.[.<.v.r.l.l.  ",
"3 w.x.E y.n.$.[.z.I 7.X ].|.-.{.{.-.6.K p.J A.&.H ^.b.B.C.4 D.  ",
"  E.F.G.H.B.b.^.%.j.e.*.f.X =.].].=.p.}.7.A.&.H q.u.F I.J.4 K.  ",
"  L.M.E I.F b.^.%.z.o.A.7.f.f.X }.}.f.7.A.I j.H q.<.v.y.N.4 K.  ",
"  O.P.4.B.n.u.q.%.z.&.I A.*.7.J f.J 7.i.e.&.z.H c.<.b.F Q.l.R.  ",
"  S.T.#.b.u.$.c.H z.&.I A.*.7.J 7.7.*.i.e.o.z.H [.q.<.b.U.V.K.  ",
"  W.X.~.q.q.c.%.d.j.o.e.A.*.7.J J 7.*.i.e.o.j.z.d.[.c.q.Y.+.D.  ",
"  Z.`.!.z.z.z.j.o.I e.i.*.7.J J J J 7.*.i.A.e.o.j.z.z.z. +A D.  ",
"  .+++@+e.e.e.e.e.A.*.*.7.J J f.f.J J J *.*.i.e.e.e.e.e.#+o l.  ",
"  $+%+&+J J J J J 7.J J f.}.}.}.}.}.}.f.J J 7.J J J J J *+6 l.  ",
"  =+-+;+>+,+'+)+)+!+~+{+]+]+^+/+(+!+_+:+<+[+}+[+|+1+2+3+4+5+(.  ",
"  6+7+8+9+w.} 0+[ C a+b+b+/ P.c+* b+< d+e+f+g+* h+i+j+k+l+7 m+  ",
"  ) = n+| o+& o+p+q+| r+s+t+u+v+w+x+p+% . ; > ' y+R.4 z+A+B+C+  ",
"    - D+E+, , > > > F+F+F+;   G+H+  F+D+D+D+; ; F+, , , > E+    ",
"                              I+J+5+                            ",
"                        u+K+L+! M+N+g+%                         ",
"                    q+O+t.P+Q+R+S+u+T+U+V+W+                    ",
"                    t.X+Y+Y+Z+q+`+ @.@+@@@#@$@                  ",
"                  : Z+%@&@&@%@Y+*@=@-@;@>@,@'@                  ",
"                * )@Y+Y+!@X+!@t.~@=@} {@]@^@/@(@                ",
"                | t._@m.:@:@:@&@<@[@}@u+|@1@2@3@                ",
"                4@5@Z+t.m.Z+m.t.Q+: d+6@7@8@9@0@                ",
"                u+~@t.m.m.Z+Z+t.a@b@[ c@d@e@f@g@                ",
"                F+% +@& h@C+| .@p+h@- i@I+j@k@l@                "};
